# xmcd CD database file
#
# Track frame offsets:
#	150
#	32548
#	44982
#	58225
#	77330
#	96486
#	109223
#	131968
#	154864
#	171290
#	191204
#	205710
#	221580
#	238966
#	258982
#	275814
#	298204
#	311850
#
# Disc length: 4408 seconds
#
# Revision: 2
# Processed by: cddbd v1.5.1PL2 Copyright (c) Steve Scherf et al.
# Submitted via: CDex 1.51
#
DISCID=29113612
DTITLE=Clapton, Eric - The Cream Of Clapton
DYEAR=1994
DGENRE=Rhythm and Blues
TTITLE0=Layla
TTITLE1=Badge
TTITLE2=I Feel Free
TTITLE3=Sunshine Of Your Love
TTITLE4=Crossroads
TTITLE5=Strange Brew
TTITLE6=White Room
TTITLE7=Bell Bottom Blues
TTITLE8=Cocaine
TTITLE9=I Shot The Sheriff
TTITLE10=After Midnight
TTITLE11=Swing Love Sweet Chariot
TTITLE12=Lay Down Sally
TTITLE13=Knockin' On Heavens Door
TTITLE14=Wonderful Tonight
TTITLE15=Let It Grow
TTITLE16=Promises
TTITLE17=I Can't Stand It
EXTD=YEAR: 1994
EXTT0=
EXTT1=
EXTT2=
EXTT3=
EXTT4=
EXTT5=
EXTT6=
EXTT7=
EXTT8=
EXTT9=
EXTT10=
EXTT11=
EXTT12=
EXTT13=
EXTT14=
EXTT15=
EXTT16=
EXTT17=
PLAYORDER=
